<?xml version="1.0" encoding="utf-8"?>
<!-- Generator: Adobe Illustrator 16.0.0, SVG Export Plug-In . SVG Version: 6.00 Build 0)  -->
<!DOCTYPE svg PUBLIC "-//W3C//DTD SVG 1.1//EN" "http://www.w3.org/Graphics/SVG/1.1/DTD/svg11.dtd">
<svg version="1.1" id="Layer_1" xmlns="http://www.w3.org/2000/svg" xmlns:xlink="http://www.w3.org/1999/xlink" x="0px" y="0px"
	 width="1704.863px" height="118.699px" viewBox="0 0 1704.863 118.699" enable-background="new 0 0 1704.863 118.699"
	 xml:space="preserve">
<g>
	<path fill="#FFFFFF" stroke="#FFFFFF" stroke-miterlimit="10" d="M75.033,13.219c7.59,0,14.05,4.18,19.381,12.537
		c1.961,4.137,2.942,7.74,2.942,10.81v4.35c0,6.312-2.985,12.367-8.955,18.166v0.192c2.644,2.175,4.435,4.244,5.373,6.205
		c2.388,4.222,3.582,8.146,3.582,11.77v4.35c0,5.885-2.708,11.664-8.124,17.334c-4.733,4.009-9.595,6.013-14.584,6.013H18.616
		v-0.384c6.78-2.431,10.17-5.159,10.17-8.188V21.791c0-2.984-3.326-5.714-9.979-8.188v-0.384H75.033z M47.336,36.95
		c0,0.555-0.064,1.087-0.192,1.599c0.128,0.512,0.192,1.045,0.192,1.599v13.177h17.334c8.102,0,13.688-3.795,16.759-11.386
		c0.256-1.663,0.384-2.792,0.384-3.39c0-6.652-4.052-11.364-12.153-14.136c-1.578-0.426-3.049-0.64-4.414-0.64h-17.91V36.95z
		 M47.336,77.632c0,0.555-0.064,1.087-0.192,1.599c0.128,0.512,0.192,1.045,0.192,1.599v13.177h16.759
		c8.357,0,14.072-3.603,17.143-10.81c0.384-1.663,0.576-3.048,0.576-4.158c0-6.396-3.988-11.044-11.961-13.944
		c-1.578-0.426-3.028-0.64-4.35-0.64H47.336V77.632z"/>
	<path fill="#FFFFFF" stroke="#FFFFFF" stroke-miterlimit="10" d="M142.452,13.219v0.384c-6.652,2.431-9.979,5.16-9.979,8.188
		v74.967c0,1.791,2.132,3.924,6.396,6.396c2.132,0.938,3.326,1.407,3.582,1.407v0.384h-38.699v-0.384
		c6.78-2.431,10.17-5.159,10.17-8.188V21.791c0-3.027-3.326-5.757-9.979-8.188v-0.384H142.452z"/>
	<path fill="#FFFFFF" stroke="#FFFFFF" stroke-miterlimit="10" d="M187.547,13.219v0.384c-6.78,2.261-10.17,5.331-10.17,9.211
		v71.577h38.059c3.283,0,6.141-3.39,8.571-10.17h0.384v20.341c0,0.256-0.128,0.384-0.384,0.384h-75.159v-0.384
		c6.908-2.175,10.362-5.437,10.362-9.787V23.39c0-4.392-3.39-7.654-10.17-9.787v-0.384H187.547z"/>
	<path fill="#FFFFFF" stroke="#FFFFFF" stroke-miterlimit="10" d="M269.486,13.219v0.384c-6.78,2.261-10.17,5.331-10.17,9.211
		v71.577h38.059c3.283,0,6.141-3.39,8.571-10.17h0.384v20.341c0,0.256-0.128,0.384-0.384,0.384h-75.159v-0.384
		c6.908-2.175,10.362-5.437,10.362-9.787V23.39c0-4.392-3.39-7.654-10.17-9.787v-0.384H269.486z"/>
	<path fill="#FFFFFF" stroke="#FFFFFF" stroke-miterlimit="10" d="M344.645,13.219v0.384c-2.389,0.938-3.582,2.346-3.582,4.222
		v1.407c0,2.389,2.516,7.036,7.548,13.944c4.051,6.695,6.652,10.682,7.804,11.961c8.869-13.816,13.773-21.662,14.712-23.539
		c0.298-1.705,0.448-2.708,0.448-3.006c0-2.388-1.194-4.051-3.582-4.989v-0.384h31.854v0.384c-3.54,1.109-9.126,6.972-16.759,17.59
		L365.37,58.314V95.35c0,3.753,3.39,6.823,10.17,9.211v0.384h-38.699v-0.384c6.78-2.431,10.17-5.223,10.17-8.379V58.698
		c0-0.853-6.844-11.364-20.533-31.535c-5.885-7.633-10.405-12.153-13.561-13.561h-0.192v-0.384H344.645z"/>
	<path fill="#FFFFFF" stroke="#FFFFFF" stroke-miterlimit="10" d="M530.847,13.219v0.384c-6.652,2.517-9.979,5.245-9.979,8.188
		v46.694c0,12.367-0.662,19.275-1.983,20.725c-2.431,6.354-6.61,10.938-12.537,13.752c-2.9,1.322-5.821,1.983-8.763,1.983h-29.936
		c-7.89,0-14.392-3.923-19.509-11.77c-2.687-4.392-4.03-10.106-4.03-17.143c-1.066-2.132-2.517-3.731-4.35-4.797
		c-0.47-0.256-0.811-0.384-1.023-0.384v-0.384h31.535v0.384c-5.885,2.047-8.827,5.907-8.827,11.578c0,5.075,2.792,8.785,8.379,11.13
		c1.321,0.427,3.048,0.64,5.181,0.64h14.392c5.757,0,9.872-3.603,12.345-10.81c0.256-1.321,0.384-2.644,0.384-3.966v-58.4
		c0-2.388-3.177-4.861-9.531-7.42h-0.192v-0.384H530.847z"/>
	<path fill="#FFFFFF" stroke="#FFFFFF" stroke-miterlimit="10" d="M612.402,13.219c0.256,0.043,0.384,0.171,0.384,0.384v20.341
		h-0.384c-2.474-6.78-5.267-10.17-8.379-10.17h-38.251v29.936h24.307c3.496,0,6.417-3.326,8.763-9.979h0.448v30.703h-0.448
		c-1.365-4.52-3.476-7.718-6.333-9.595l-1.407-0.384h-25.33v29.936h37.483c3.795,0,6.844-3.39,9.147-10.17h0.384v20.341
		c0,0.256-0.128,0.384-0.384,0.384h-75.159v-0.384c6.78-2.431,10.17-5.159,10.17-8.188V21.791c0-2.984-3.326-5.714-9.979-8.188
		v-0.384H612.402z"/>
	<path fill="#FFFFFF" stroke="#FFFFFF" stroke-miterlimit="10" d="M673.041,13.219c7.42,0,13.794,4.116,19.125,12.345
		c2.132,4.265,3.198,8.06,3.198,11.386v2.367c0,0.299-0.128,0.448-0.384,0.448h-21.556v-0.448c1.407,0,2.409-1.321,3.006-3.966
		c0-2.899-2.005-6.098-6.013-9.595c-2.261-1.193-4.244-1.791-5.949-1.791h-14.392c-5.203,0-9.126,3.326-11.77,9.979
		c-0.384,1.663-0.576,3.134-0.576,4.414v0.768c0,6.866,3.326,11.6,9.979,14.2c1.321,0.256,2.644,0.384,3.966,0.384h20.533
		c9.125,0,16.183,4.989,21.172,14.968c1.321,3.369,1.983,6.418,1.983,9.147v3.006c0,7.634-3.518,14.286-10.554,19.957
		c-4.009,2.772-8.209,4.158-12.601,4.158h-29.872c-8.188,0-14.84-4.179-19.957-12.537c-2.133-4.094-3.198-8.017-3.198-11.77v-1.791
		c0.042-0.298,0.17-0.448,0.384-0.448h21.556v0.448c-1.877,0.64-2.814,1.77-2.814,3.39v1.151c0,2.645,1.94,5.565,5.821,8.763
		c2.089,1.365,4.2,2.047,6.333,2.047h13.561c5.671,0,9.744-3.39,12.217-10.17c0.384-1.279,0.576-2.473,0.576-3.582v-2.239
		c0-5.202-2.602-9.381-7.804-12.537c-1.535-0.81-3.326-1.215-5.373-1.215h-20.341c-6.652,0-12.303-2.388-16.951-7.164
		c-4.776-5.33-7.164-11.108-7.164-17.334v-2.431c0-8.443,4.051-15.543,12.153-21.3c3.795-2.004,7.249-3.006,10.362-3.006H673.041z"
		/>
	<path fill="#FFFFFF" stroke="#FFFFFF" stroke-miterlimit="10" d="M755.619,13.219c7.42,0,13.794,4.116,19.125,12.345
		c2.132,4.265,3.198,8.06,3.198,11.386v2.367c0,0.299-0.128,0.448-0.384,0.448h-21.556v-0.448c1.407,0,2.409-1.321,3.006-3.966
		c0-2.899-2.005-6.098-6.013-9.595c-2.261-1.193-4.244-1.791-5.949-1.791h-14.392c-5.203,0-9.126,3.326-11.77,9.979
		c-0.384,1.663-0.576,3.134-0.576,4.414v0.768c0,6.866,3.326,11.6,9.979,14.2c1.321,0.256,2.644,0.384,3.966,0.384h20.533
		c9.125,0,16.183,4.989,21.172,14.968c1.321,3.369,1.983,6.418,1.983,9.147v3.006c0,7.634-3.518,14.286-10.554,19.957
		c-4.009,2.772-8.209,4.158-12.601,4.158h-29.872c-8.188,0-14.84-4.179-19.957-12.537c-2.133-4.094-3.198-8.017-3.198-11.77v-1.791
		c0.042-0.298,0.17-0.448,0.384-0.448h21.556v0.448c-1.877,0.64-2.814,1.77-2.814,3.39v1.151c0,2.645,1.94,5.565,5.821,8.763
		c2.089,1.365,4.2,2.047,6.333,2.047H746.6c5.671,0,9.744-3.39,12.217-10.17c0.384-1.279,0.576-2.473,0.576-3.582v-2.239
		c0-5.202-2.602-9.381-7.804-12.537c-1.535-0.81-3.326-1.215-5.373-1.215h-20.341c-6.652,0-12.303-2.388-16.951-7.164
		c-4.776-5.33-7.164-11.108-7.164-17.334v-2.431c0-8.443,4.051-15.543,12.153-21.3c3.795-2.004,7.249-3.006,10.362-3.006H755.619z"
		/>
	<path fill="#FFFFFF" stroke="#FFFFFF" stroke-miterlimit="10" d="M859.498,13.219c0.256,0.043,0.384,0.171,0.384,0.384v20.341
		h-0.384c-2.474-6.78-5.268-10.17-8.38-10.17h-38.25v29.936h24.307c3.495,0,6.417-3.326,8.763-9.979h0.448v30.703h-0.448
		c-1.365-4.52-3.477-7.718-6.333-9.595l-1.406-0.384h-25.33v29.936h37.482c3.795,0,6.845-3.39,9.147-10.17h0.384v20.341
		c0,0.256-0.128,0.384-0.384,0.384h-75.159v-0.384c6.78-2.431,10.17-5.159,10.17-8.188V21.791c0-2.984-3.326-5.714-9.979-8.188
		v-0.384H859.498z"/>
	<path fill="#FFFFFF" stroke="#FFFFFF" stroke-miterlimit="10" d="M937.472,13.219v0.384c-2.219,0.342-5.012,1.941-8.38,4.797
		c-1.066,1.322-1.599,2.325-1.599,3.006l27.121,62.622h0.191c15.564-36.118,24.54-57.057,26.93-62.813
		c0-2.473-3.263-5.01-9.787-7.612v-0.384h38.314v0.384c-6.652,2.346-9.979,5.352-9.979,9.019v72.92c0,3.71,3.391,6.716,10.171,9.019
		v0.384h-38.698v-0.384c6.779-2.303,10.17-5.309,10.17-9.019V62.664h-0.191c-1.622,4.052-7.676,18.145-18.166,42.281h-17.527
		c-0.383,0-3.518-7.036-9.402-21.108c-6.099-13.858-9.146-20.98-9.146-21.364h-0.192v31.918c0,3.668,1.791,6.312,5.373,7.932
		c2.175,1.322,3.774,2.069,4.798,2.239v0.384h-38.699v-0.384c6.78-2.431,10.17-5.159,10.17-8.188V21.791
		c0-2.984-3.326-5.714-9.979-8.188v-0.384H937.472z"/>
	<path fill="#FFFFFF" stroke="#FFFFFF" stroke-miterlimit="10" d="M1055.55,13.219v0.384c-6.652,2.431-9.979,5.16-9.979,8.188
		v74.967c0,1.791,2.132,3.924,6.396,6.396c2.132,0.938,3.326,1.407,3.582,1.407v0.384h-38.698v-0.384
		c6.78-2.431,10.171-5.159,10.171-8.188V21.791c0-3.027-3.326-5.757-9.979-8.188v-0.384H1055.55z"/>
	<path fill="#FFFFFF" stroke="#FFFFFF" stroke-miterlimit="10" d="M1115.805,13.219c7.42,0,13.794,4.116,19.126,12.345
		c2.131,4.265,3.197,8.06,3.197,11.386v2.367c0,0.299-0.127,0.448-0.383,0.448h-21.557v-0.448c1.407,0,2.408-1.321,3.006-3.966
		c0-2.899-2.005-6.098-6.012-9.595c-2.262-1.193-4.244-1.791-5.949-1.791h-14.393c-5.203,0-9.126,3.326-11.77,9.979
		c-0.383,1.663-0.575,3.134-0.575,4.414v0.768c0,6.866,3.326,11.6,9.979,14.2c1.321,0.256,2.644,0.384,3.966,0.384h20.533
		c9.124,0,16.183,4.989,21.172,14.968c1.321,3.369,1.982,6.418,1.982,9.147v3.006c0,7.634-3.518,14.286-10.554,19.957
		c-4.009,2.772-8.21,4.158-12.601,4.158h-29.872c-8.188,0-14.84-4.179-19.957-12.537c-2.133-4.094-3.198-8.017-3.198-11.77v-1.791
		c0.042-0.298,0.17-0.448,0.384-0.448h21.556v0.448c-1.877,0.64-2.814,1.77-2.814,3.39v1.151c0,2.645,1.94,5.565,5.821,8.763
		c2.089,1.365,4.199,2.047,6.333,2.047h13.561c5.67,0,9.743-3.39,12.217-10.17c0.384-1.279,0.576-2.473,0.576-3.582v-2.239
		c0-5.202-2.603-9.381-7.805-12.537c-1.535-0.81-3.326-1.215-5.373-1.215h-20.34c-6.652,0-12.304-2.388-16.951-7.164
		c-4.776-5.33-7.164-11.108-7.164-17.334v-2.431c0-8.443,4.051-15.543,12.153-21.3c3.795-2.004,7.249-3.006,10.362-3.006H1115.805z"
		/>
	<path fill="#FFFFFF" stroke="#FFFFFF" stroke-miterlimit="10" d="M1236.634,13.219v0.384c-6.652,2.517-9.979,5.245-9.979,8.188
		v46.694c0,12.367-0.662,19.275-1.982,20.725c-2.432,6.354-6.611,10.938-12.537,13.752c-2.901,1.322-5.821,1.983-8.764,1.983
		h-29.936c-7.89,0-14.393-3.923-19.51-11.77c-2.686-4.392-4.029-10.106-4.029-17.143c-1.066-2.132-2.517-3.731-4.35-4.797
		c-0.47-0.256-0.811-0.384-1.023-0.384v-0.384h31.535v0.384c-5.885,2.047-8.828,5.907-8.828,11.578c0,5.075,2.793,8.785,8.38,11.13
		c1.321,0.427,3.048,0.64,5.181,0.64h14.393c5.757,0,9.871-3.603,12.346-10.81c0.256-1.321,0.383-2.644,0.383-3.966v-58.4
		c0-2.388-3.177-4.861-9.53-7.42h-0.192v-0.384H1236.634z"/>
	<path fill="#FFFFFF" stroke="#FFFFFF" stroke-miterlimit="10" d="M1281.537,13.219v0.384c-4.861,1.621-8.124,3.881-9.786,6.78
		v60.255c0,5.203,2.664,9.382,7.995,12.537c1.705,0.683,3.219,1.023,4.542,1.023h13.368c5.97,0,10.171-3.39,12.601-10.17
		c0.385-1.364,0.576-2.899,0.576-4.605V21.407c0-2.687-3.262-5.287-9.787-7.804v-0.384h38.315v0.384
		c-6.652,2.346-9.979,5.416-9.979,9.211v57.632c0,7.932-3.519,14.712-10.554,20.341c-4.138,2.772-8.21,4.158-12.218,4.158h-30.511
		c-8.699,0-15.607-4.775-20.725-14.328c-1.579-3.624-2.367-7.825-2.367-12.601V21.791c0-2.942-3.326-5.671-9.979-8.188v-0.384
		H1281.537z"/>
	<path fill="#FFFFFF" stroke="#FFFFFF" stroke-miterlimit="10" d="M1382.346,13.219v0.384c-2.985,0-5.651,1.407-7.995,4.222
		c-0.256,0.938-0.385,1.727-0.385,2.367c0,1.493,3.177,11.621,9.531,30.383l9.595,30.383c0.298-0.085,3.304-9.083,9.019-26.993
		c7.078-21.449,10.619-32.707,10.619-33.773V20c0-3.283-2.814-5.415-8.443-6.396v-0.384h35.564v0.384
		c-3.114,0-5.758,1.407-7.932,4.222c-0.3,0.512-0.512,1.301-0.641,2.367c0.81,3.668,5.949,19.659,15.416,47.974
		c0,0.427,1.321,4.691,3.966,12.793h0.192c12.793-39.53,19.189-59.508,19.189-59.935v-1.407c0-2.899-2.666-4.903-7.996-6.013h-0.384
		v-0.384h36.588v0.384c-5.629,2.09-9.233,4.755-10.81,7.996c-16.375,50.49-24.563,76.012-24.563,76.566v0.768
		c0,2.559,2.195,4.436,6.588,5.629v0.384h-37.355v-0.384c4.392-1.236,6.588-3.176,6.588-5.821c0-1.023-3.412-11.875-10.234-32.558
		c-3.709-11.386-5.843-17.974-6.396-19.765h-0.191c-10.234,31.854-15.693,48.976-16.375,51.364
		c-0.128,0.214-0.191,0.534-0.191,0.959c0,2.602,2.195,4.542,6.588,5.821v0.384h-37.164v-0.384c4.392-1.236,6.589-3.24,6.589-6.013
		c-0.256-1.492-8.571-27.334-24.946-77.525c-1.237-2.644-4.776-5.117-10.618-7.42v-0.384H1382.346z"/>
	<path fill="#FFFFFF" stroke="#FFFFFF" stroke-miterlimit="10" d="M1570.978,13.219v0.384c-4.648,1.151-6.972,3.22-6.972,6.205
		c0,0.47,8.188,25.992,24.563,76.566c0.597,2.559,4.071,5.288,10.427,8.188h0.383v0.384h-35.947v-0.384
		c5.03-1.108,7.547-2.708,7.547-4.797c0.256,0,0.385-0.469,0.385-1.407v-0.192c0-0.98-1.387-5.778-4.158-14.392h-30.383
		c-2.814,8.443-4.223,13.177-4.223,14.2v0.576c0,2.9,2.601,4.904,7.805,6.013h0.191v0.384h-35.948v-0.384
		c2.814-0.725,5.821-2.537,9.019-5.437c0.81,0,3.263-6.844,7.356-20.533c12.665-38.464,18.997-58.122,18.997-58.976
		c0-2.771-2.324-4.775-6.972-6.013v-0.384H1570.978z M1540.403,73.154h23.219v-0.192c-7.591-23.325-11.386-35.181-11.386-35.564
		h-0.448L1540.403,73.154z"/>
	<path fill="#FFFFFF" stroke="#FFFFFF" stroke-miterlimit="10" d="M1663.79,13.219c6.822,0,12.878,3.582,18.166,10.746
		c2.899,4.904,4.35,9.83,4.35,14.776c0,9.51-4.308,17.165-12.92,22.963c-3.498,1.834-7.763,2.75-12.793,2.75h-4.798l38.123,40.298
		v0.192h-35.501v-0.384c5.33-1.961,7.996-3.902,7.996-5.821v-0.192c0-0.81-1.471-2.601-4.414-5.373
		c-15.734-16.673-24.84-26.247-27.313-28.72h-0.191v32.302c0,1.791,2.131,3.924,6.396,6.396c2.131,0.938,3.326,1.407,3.582,1.407
		v0.384h-38.699v-0.384c6.78-2.431,10.17-5.159,10.17-8.188V21.791c0-2.984-3.326-5.714-9.979-8.188v-0.384H1663.79z
		 M1634.495,53.325h17.334c8.102,0,13.688-3.795,16.759-11.386c0.256-1.663,0.384-2.792,0.384-3.39
		c0-6.652-4.052-11.364-12.153-14.136c-1.578-0.426-3.05-0.64-4.413-0.64h-17.91V53.325z"/>
</g>
</svg>
